<svg width="1200" height="675" viewBox="0 0 1200 675" fill="none" xmlns="http://www.w3.org/2000/svg">
  <rect width="1200" height="675" rx="40" fill="#0F172A"/>
  <rect x="40" y="40" width="1120" height="595" rx="32" fill="url(#bg)"/>
  <circle cx="918" cy="210" r="152" fill="#FBBF24" fill-opacity="0.16"/>
  <circle cx="318" cy="470" r="210" fill="#38BDF8" fill-opacity="0.16"/>
  <rect x="160" y="200" width="320" height="240" rx="28" fill="#111827" stroke="#F8FAFC" stroke-opacity="0.2"/>
  <rect x="200" y="238" width="240" height="18" rx="9" fill="#F8FAFC" fill-opacity="0.9"/>
  <rect x="200" y="274" width="180" height="16" rx="8" fill="#F8FAFC" fill-opacity="0.65"/>
  <rect x="200" y="308" width="210" height="16" rx="8" fill="#F8FAFC" fill-opacity="0.55"/>
  <rect x="200" y="342" width="150" height="16" rx="8" fill="#F8FAFC" fill-opacity="0.4"/>
  <rect x="540" y="184" width="350" height="240" rx="30" fill="#F8FAFC" fill-opacity="0.95"/>
  <path d="M588 384L712 260L786 334L876 236" stroke="#F59E0B" stroke-width="24" stroke-linecap="round" stroke-linejoin="round"/>
  <circle cx="588" cy="384" r="18" fill="#F59E0B"/>
  <circle cx="712" cy="260" r="18" fill="#F59E0B"/>
  <circle cx="786" cy="334" r="18" fill="#F59E0B"/>
  <circle cx="876" cy="236" r="18" fill="#F59E0B"/>
  <rect x="542" y="450" width="220" height="26" rx="13" fill="#F8FAFC" fill-opacity="0.95"/>
  <rect x="542" y="490" width="160" height="18" rx="9" fill="#F8FAFC" fill-opacity="0.7"/>
  <defs>
    <linearGradient id="bg" x1="130" y1="70" x2="1060" y2="610" gradientUnits="userSpaceOnUse">
      <stop stop-color="#1E3A8A"/>
      <stop offset="1" stop-color="#0F766E"/>
    </linearGradient>
  </defs>
</svg>
