<svg width="1200" height="675" viewBox="0 0 1200 675" xmlns="http://www.w3.org/2000/svg">
  <rect width="1200" height="675" rx="40" fill="#0F172A"/>
  <rect x="84" y="84" width="1032" height="507" rx="32" fill="url(#g)"/>
  <rect x="176" y="182" width="250" height="290" rx="28" fill="#F8FAFC" fill-opacity="0.95"/>
  <rect x="214" y="230" width="174" height="18" rx="9" fill="#0F172A" fill-opacity="0.8"/>
  <rect x="214" y="266" width="136" height="16" rx="8" fill="#0F172A" fill-opacity="0.55"/>
  <rect x="214" y="300" width="154" height="16" rx="8" fill="#0F172A" fill-opacity="0.4"/>
  <rect x="214" y="338" width="118" height="16" rx="8" fill="#0F172A" fill-opacity="0.3"/>
  <rect x="486" y="182" width="250" height="290" rx="28" fill="#F8FAFC" fill-opacity="0.95"/>
  <rect x="524" y="230" width="174" height="18" rx="9" fill="#0F172A" fill-opacity="0.8"/>
  <rect x="524" y="266" width="136" height="16" rx="8" fill="#0F172A" fill-opacity="0.55"/>
  <rect x="524" y="300" width="154" height="16" rx="8" fill="#0F172A" fill-opacity="0.4"/>
  <rect x="524" y="338" width="118" height="16" rx="8" fill="#0F172A" fill-opacity="0.3"/>
  <rect x="796" y="182" width="250" height="290" rx="28" fill="#F8FAFC" fill-opacity="0.95"/>
  <rect x="834" y="230" width="174" height="18" rx="9" fill="#0F172A" fill-opacity="0.8"/>
  <rect x="834" y="266" width="136" height="16" rx="8" fill="#0F172A" fill-opacity="0.55"/>
  <rect x="834" y="300" width="154" height="16" rx="8" fill="#0F172A" fill-opacity="0.4"/>
  <rect x="834" y="338" width="118" height="16" rx="8" fill="#0F172A" fill-opacity="0.3"/>
  <defs>
    <linearGradient id="g" x1="120" y1="120" x2="1080" y2="560" gradientUnits="userSpaceOnUse">
      <stop stop-color="#0F766E"/>
      <stop offset="1" stop-color="#F59E0B"/>
    </linearGradient>
  </defs>
</svg>
